<svg width="45" height="44" viewBox="0 0 45 44" fill="none" xmlns="http://www.w3.org/2000/svg">
<ellipse cx="22.6044" cy="22.1181" rx="22.3956" ry="16.1181" fill="white"/>
<path d="M33.4823 43.3939L30.1574 34.6902H36.8072L33.4823 43.3939Z" fill="white"/>
<path d="M13.47 25.3089C12.703 25.3089 12.046 25.0391 11.4991 24.4993C10.9594 23.9595 10.693 23.3061 10.7001 22.5391C10.693 21.7862 10.9594 21.1435 11.4991 20.6108C12.046 20.071 12.703 19.8011 13.47 19.8011C14.1945 19.8011 14.8337 20.071 15.3876 20.6108C15.9487 21.1435 16.2328 21.7862 16.2399 22.5391C16.2328 23.0504 16.0979 23.5156 15.8351 23.9347C15.5794 24.3537 15.242 24.6875 14.823 24.9361C14.4111 25.1847 13.9601 25.3089 13.47 25.3089ZM22.0107 25.3089C21.2436 25.3089 20.5866 25.0391 20.0398 24.4993C19.5 23.9595 19.2337 23.3061 19.2408 22.5391C19.2337 21.7862 19.5 21.1435 20.0398 20.6108C20.5866 20.071 21.2436 19.8011 22.0107 19.8011C22.7351 19.8011 23.3743 20.071 23.9283 20.6108C24.4893 21.1435 24.7734 21.7862 24.7805 22.5391C24.7734 23.0504 24.6385 23.5156 24.3757 23.9347C24.12 24.3537 23.7827 24.6875 23.3636 24.9361C22.9517 25.1847 22.5007 25.3089 22.0107 25.3089ZM30.5513 25.3089C29.7842 25.3089 29.1273 25.0391 28.5804 24.4993C28.0406 23.9595 27.7743 23.3061 27.7814 22.5391C27.7743 21.7862 28.0406 21.1435 28.5804 20.6108C29.1273 20.071 29.7842 19.8011 30.5513 19.8011C31.2757 19.8011 31.9149 20.071 32.4689 20.6108C33.03 21.1435 33.3141 21.7862 33.3212 22.5391C33.3141 23.0504 33.1791 23.5156 32.9163 23.9347C32.6607 24.3537 32.3233 24.6875 31.9043 24.9361C31.4923 25.1847 31.0413 25.3089 30.5513 25.3089Z" fill="#253D62"/>
</svg>
