<svg width="46" height="36" viewBox="0 0 46 36" fill="none" xmlns="http://www.w3.org/2000/svg">
<path d="M2.19043 31V11.1099C2.19043 10.2033 3.30007 9.76456 3.92005 10.426L13.1428 20.2661L23.2059 5.79496C23.6218 5.19689 24.5171 5.22993 24.8878 5.85704L33.4047 20.2661L42.0626 10.5425C42.6738 9.85608 43.8095 10.2884 43.8095 11.2075V31C43.8095 33.2091 42.0186 35 39.8095 35H6.19043C3.98129 35 2.19043 33.2091 2.19043 31Z" fill="#F09120" stroke="#F09120" stroke-linecap="round"/>
<ellipse cx="2.7381" cy="8.46774" rx="2.7381" ry="2.82258" fill="#F09120"/>
<ellipse cx="43.262" cy="8.46774" rx="2.73809" ry="2.82258" fill="#F09120"/>
<ellipse cx="24.0953" cy="3.3871" rx="3.28571" ry="3.3871" fill="#F09120"/>
<ellipse cx="14.7857" cy="25.4032" rx="2.7381" ry="2.82258" fill="white"/>
<ellipse cx="23.5477" cy="25.4032" rx="2.7381" ry="2.82258" fill="white"/>
<ellipse cx="32.3096" cy="25.4032" rx="2.7381" ry="2.82258" fill="white"/>
</svg>
