<svg width="146" height="176" viewBox="0 0 146 176" fill="none" xmlns="http://www.w3.org/2000/svg">
<path d="M0 23C0 11.9543 8.95431 2.99998 20 2.99998H123C134.046 2.99998 143 11.9543 143 23V156C143 167.046 134.046 176 123 176H20C8.95431 176 0 167.046 0 156V23Z" fill="#728583" fill-opacity="0.5"/>
<path d="M143.574 2.60747L97.8463 0.780029L145.044 46.5649L143.574 2.60747Z" fill="white"/>
<path d="M101.378 45.3565C100.335 45.2998 99.5044 44.494 99.4556 43.4905L97.5806 4.94332C97.4934 3.15027 99.752 2.19817 101.067 3.47382L143.035 44.1982C144.349 45.4739 143.337 47.6349 141.472 47.5337L101.378 45.3565Z" fill="#728583"/>
</svg>
