<svg width="45" height="45" viewBox="0 0 45 45" fill="none" xmlns="http://www.w3.org/2000/svg">
<path d="M6.8819 17.563C6.8819 14.2493 9.56819 11.563 12.8819 11.563H32.0597C35.3734 11.563 38.0597 14.2493 38.0597 17.563V38.6255C38.0597 41.9392 35.3734 44.6255 32.0597 44.6255H12.8819C9.56818 44.6255 6.8819 41.9392 6.8819 38.6255V17.563Z" fill="#F09120"/>
<path d="M20.2874 0.94261C21.4717 -0.314202 23.4699 -0.314204 24.6542 0.942607L44.119 21.5994C45.9226 23.5135 44.5656 26.6568 41.9356 26.6568H3.00596C0.375992 26.6568 -0.981046 23.5135 0.822577 21.5994L20.2874 0.94261Z" fill="#F09120"/>
<path d="M15.0152 24.063C15.0152 23.5107 15.4629 23.063 16.0152 23.063H20.793C21.3453 23.063 21.793 23.5107 21.793 24.063V29.2505C21.793 29.8028 21.3453 30.2505 20.793 30.2505H16.0152C15.4629 30.2505 15.0152 29.8028 15.0152 29.2505V24.063Z" fill="white"/>
<path d="M23.1486 24.063C23.1486 23.5107 23.5963 23.063 24.1486 23.063H28.9263C29.4786 23.063 29.9263 23.5107 29.9263 24.063V29.2505C29.9263 29.8028 29.4786 30.2505 28.9263 30.2505H24.1486C23.5963 30.2505 23.1486 29.8028 23.1486 29.2505V24.063Z" fill="white"/>
<path d="M23.1486 32.688C23.1486 32.1357 23.5963 31.688 24.1486 31.688H28.9263C29.4786 31.688 29.9263 32.1357 29.9263 32.688V37.8755C29.9263 38.4278 29.4786 38.8755 28.9263 38.8755H24.1486C23.5963 38.8755 23.1486 38.4278 23.1486 37.8755V32.688Z" fill="white"/>
<path d="M15.0152 32.688C15.0152 32.1357 15.4629 31.688 16.0152 31.688H20.793C21.3453 31.688 21.793 32.1357 21.793 32.688V37.8755C21.793 38.4278 21.3453 38.8755 20.793 38.8755H16.0152C15.4629 38.8755 15.0152 38.4278 15.0152 37.8755V32.688Z" fill="white"/>
</svg>
