<svg width="748" height="605" viewBox="0 0 748 605" fill="none" xmlns="http://www.w3.org/2000/svg">
<mask id="path-1-inside-1_322_222" fill="white">
<path fill-rule="evenodd" clip-rule="evenodd" d="M337 0C331.477 0 327 4.47715 327 10V222C327 227.523 331.477 232 337 232H349.339L355.633 273.054L395.768 232H738C743.523 232 748 227.523 748 222V10C748 4.47715 743.523 0 738 0H337Z"/>
</mask>
<path d="M349.339 232L352.305 231.545L351.915 229H349.339V232ZM355.633 273.054L352.667 273.509L353.578 279.447L357.778 275.151L355.633 273.054ZM395.768 232V229H394.506L393.623 229.903L395.768 232ZM330 10C330 6.13401 333.134 3 337 3V-3C329.82 -3 324 2.8203 324 10H330ZM330 222V10H324V222H330ZM337 229C333.134 229 330 225.866 330 222H324C324 229.18 329.82 235 337 235V229ZM349.339 229H337V235H349.339V229ZM358.598 272.599L352.305 231.545L346.374 232.455L352.667 273.509L358.598 272.599ZM393.623 229.903L353.487 270.957L357.778 275.151L397.914 234.097L393.623 229.903ZM738 229H395.768V235H738V229ZM745 222C745 225.866 741.866 229 738 229V235C745.18 235 751 229.18 751 222H745ZM745 10V222H751V10H745ZM738 3C741.866 3 745 6.13401 745 10H751C751 2.82029 745.18 -3 738 -3V3ZM337 3H738V-3H337V3Z" fill="#C8D0D0" mask="url(#path-1-inside-1_322_222)"/>
<path d="M329 12C329 6.47715 333.477 2 339 2H738C743.523 2 748 6.47715 748 12V31H329V12Z" fill="#C8D0D0"/>
<path d="M2 92C2 86.4772 6.47715 82 12 82H228C233.523 82 238 86.4772 238 92V102H2V92Z" fill="#C8D0D0"/>
<mask id="path-5-inside-2_322_222" fill="white">
<path fill-rule="evenodd" clip-rule="evenodd" d="M715 255C720.523 255 725 259.477 725 265V407.283C725 412.806 720.523 417.283 715 417.283H713.114L709.766 446L688.411 417.283H511C505.477 417.283 501 412.806 501 407.283V265C501 259.477 505.477 255 511 255H715Z"/>
</mask>
<path d="M713.114 417.283L710.134 416.936L710.443 414.283H713.114V417.283ZM709.766 446L712.745 446.347L711.87 453.857L707.358 447.79L709.766 446ZM688.411 417.283V414.283H689.918L690.818 415.493L688.411 417.283ZM722 265C722 261.134 718.866 258 715 258V252C722.18 252 728 257.82 728 265H722ZM722 407.283V265H728V407.283H722ZM715 414.283C718.866 414.283 722 411.149 722 407.283H728C728 414.463 722.18 420.283 715 420.283V414.283ZM713.114 414.283H715V420.283H713.114V414.283ZM706.786 445.653L710.134 416.936L716.094 417.63L712.745 446.347L706.786 445.653ZM690.818 415.493L712.173 444.21L707.358 447.79L686.003 419.073L690.818 415.493ZM511 414.283H688.411V420.283H511V414.283ZM504 407.283C504 411.149 507.134 414.283 511 414.283V420.283C503.82 420.283 498 414.463 498 407.283H504ZM504 265V407.283H498V265H504ZM511 258C507.134 258 504 261.134 504 265H498C498 257.82 503.82 252 511 252V258ZM715 258H511V252H715V258Z" fill="#C8D0D0" mask="url(#path-5-inside-2_322_222)"/>
<path d="M724 266C724 260.477 719.523 256 714 256H511C505.477 256 501 260.477 501 266V276H724V266Z" fill="#C8D0D0"/>
<rect x="1.5" y="83.5" width="238" height="171" rx="8.5" stroke="#C8D0D0" stroke-width="3"/>
<path d="M75 432C90.2 356.4 166.333 354.167 202.5 362.5C273.833 374.833 409.9 404.3 383.5 423.5C357.1 442.7 387.833 541.167 406.5 588L392.5 592C312.167 593.167 145.8 594.8 123 592C100.2 589.2 81.5 578.167 75 573C26.6 537.8 54.8334 464.333 75 432Z" fill="#253D62"/>
<path d="M242 485.5C250 479.1 273.667 476.167 284.5 475.5C294 475.5 309.2 475.8 294 477C278.8 478.2 253 483.167 242 485.5Z" fill="#182941"/>
<rect x="26.5" y="118.5" width="238" height="171" rx="8.5" fill="white" stroke="#253D62" stroke-width="3"/>
<mask id="path-12-inside-3_322_222" fill="white">
<path fill-rule="evenodd" clip-rule="evenodd" d="M305 51C299.477 51 295 55.4772 295 61V273C295 278.523 299.477 283 305 283H317.339L323.633 324.054L363.768 283H706C711.523 283 716 278.523 716 273V61C716 55.4772 711.523 51 706 51H305Z"/>
</mask>
<path fill-rule="evenodd" clip-rule="evenodd" d="M305 51C299.477 51 295 55.4772 295 61V273C295 278.523 299.477 283 305 283H317.339L323.633 324.054L363.768 283H706C711.523 283 716 278.523 716 273V61C716 55.4772 711.523 51 706 51H305Z" fill="white"/>
<path d="M317.339 283L320.305 282.545L319.915 280H317.339V283ZM323.633 324.054L320.667 324.509L321.578 330.447L325.778 326.151L323.633 324.054ZM363.768 283V280H362.506L361.623 280.903L363.768 283ZM298 61C298 57.134 301.134 54 305 54V48C297.82 48 292 53.8203 292 61H298ZM298 273V61H292V273H298ZM305 280C301.134 280 298 276.866 298 273H292C292 280.18 297.82 286 305 286V280ZM317.339 280H305V286H317.339V280ZM326.598 323.599L320.305 282.545L314.374 283.455L320.667 324.509L326.598 323.599ZM361.623 280.903L321.487 321.957L325.778 326.151L365.914 285.097L361.623 280.903ZM706 280H363.768V286H706V280ZM713 273C713 276.866 709.866 280 706 280V286C713.18 286 719 280.18 719 273H713ZM713 61V273H719V61H713ZM706 54C709.866 54 713 57.134 713 61H719C719 53.8203 713.18 48 706 48V54ZM305 54H706V48H305V54Z" fill="#253D62" mask="url(#path-12-inside-3_322_222)"/>
<rect x="407" y="541.573" width="28.801" height="49.702" transform="rotate(-56.0692 407 541.573)" fill="#FAC9AB"/>
<path fill-rule="evenodd" clip-rule="evenodd" d="M198.697 458.429C182.148 446.72 127.653 418.923 111.5 412L325 449C345 472.833 385 522.2 385 529C385 535.8 397 570.833 403 587.5C360.2 572.7 326.5 518.667 315 493.5C306.5 491.667 285.3 486 268.5 478C252.897 470.57 221.996 464.29 205.522 461.563C197.276 462.784 189.102 464.445 184.5 465.5C184.785 463.79 192.025 460.794 198.697 458.429Z" fill="#182941"/>
<path d="M198.697 458.429L198.864 458.9L199.773 458.578L198.985 458.021L198.697 458.429ZM111.5 412L111.585 411.507L111.303 412.46L111.5 412ZM325 449L325.383 448.679L325.266 448.539L325.085 448.507L325 449ZM403 587.5L402.837 587.973L403.825 588.314L403.471 587.331L403 587.5ZM315 493.5L315.455 493.292L315.351 493.064L315.106 493.011L315 493.5ZM268.5 478L268.715 477.549L268.5 478ZM205.522 461.563L205.604 461.07L205.527 461.057L205.449 461.069L205.522 461.563ZM184.5 465.5L184.007 465.418L183.884 466.154L184.612 465.987L184.5 465.5ZM198.985 458.021C190.679 452.144 172.889 442.253 155.182 432.977C137.469 423.698 119.793 415.01 111.697 411.54L111.303 412.46C119.361 415.913 137.008 424.585 154.718 433.863C172.434 443.144 190.165 453.005 198.408 458.837L198.985 458.021ZM111.415 412.493L324.915 449.493L325.085 448.507L111.585 411.507L111.415 412.493ZM324.617 449.321C334.615 461.235 349.61 479.53 362.105 495.693C368.352 503.776 373.97 511.32 378.025 517.265C380.052 520.238 381.683 522.802 382.805 524.83C383.366 525.844 383.795 526.715 384.082 527.429C384.375 528.157 384.5 528.675 384.5 529H385.5C385.5 528.475 385.313 527.81 385.01 527.056C384.701 526.289 384.251 525.379 383.68 524.346C382.536 522.279 380.885 519.685 378.851 516.701C374.78 510.732 369.148 503.17 362.896 495.082C350.39 478.904 335.386 460.598 325.383 448.679L324.617 449.321ZM384.5 529C384.5 529.905 384.697 531.239 385.038 532.884C385.381 534.539 385.875 536.541 386.486 538.796C387.708 543.308 389.398 548.854 391.274 554.703C395.026 566.402 399.528 579.332 402.53 587.669L403.471 587.331C400.472 579.001 395.974 566.082 392.226 554.397C390.352 548.555 388.667 543.025 387.451 538.535C386.843 536.29 386.354 534.309 386.017 532.681C385.678 531.044 385.5 529.795 385.5 529H384.5ZM403.163 587.027C381.891 579.672 362.838 562.545 347.649 544.07C332.466 525.602 321.189 505.84 315.455 493.292L314.545 493.708C320.312 506.327 331.634 526.164 346.876 544.705C362.113 563.238 381.309 580.528 402.837 587.973L403.163 587.027ZM315.106 493.011C306.625 491.182 285.466 485.525 268.715 477.549L268.285 478.451C285.134 486.475 306.375 492.151 314.895 493.989L315.106 493.011ZM268.715 477.549C260.864 473.81 249.195 470.373 237.455 467.532C225.706 464.689 213.85 462.435 205.604 461.07L205.441 462.057C213.668 463.418 225.5 465.668 237.22 468.504C248.95 471.342 260.533 474.76 268.285 478.451L268.715 477.549ZM205.449 461.069C197.188 462.292 189 463.956 184.388 465.013L184.612 465.987C189.203 464.935 197.364 463.277 205.596 462.058L205.449 461.069ZM184.993 465.582C185.004 465.515 185.068 465.37 185.28 465.147C185.485 464.933 185.785 464.689 186.181 464.42C186.972 463.883 188.085 463.288 189.416 462.663C192.074 461.414 195.534 460.081 198.864 458.9L198.53 457.957C195.188 459.142 191.693 460.489 188.991 461.757C187.642 462.391 186.475 463.013 185.62 463.592C185.193 463.882 184.829 464.171 184.556 464.457C184.292 464.734 184.067 465.057 184.007 465.418L184.993 465.582ZM111.072 375.242C108.136 380.107 104.601 387.797 103.567 395.054C103.05 398.685 103.153 402.246 104.306 405.301C105.465 408.374 107.676 410.905 111.303 412.46L111.697 411.54C108.324 410.095 106.306 407.771 105.241 404.949C104.17 402.108 104.054 398.732 104.558 395.196C105.565 388.119 109.031 380.559 111.928 375.758L111.072 375.242Z" fill="#182941"/>
<path d="M197 456C187.8 452.4 185.167 425.167 185 412L262 404L297 425C316.833 428 358.7 434.9 367.5 438.5C378.5 443 427.5 506.5 430.5 518C433.5 529.5 422.5 545.5 406.5 544C393.7 542.8 350.833 500.833 331 480C319.4 482 282.167 481.667 268 480C256.4 472.4 223.5 466.167 208.5 464C208.5 462.833 206.2 459.6 197 456Z" fill="#1C1A2F" stroke="#1C1A2F" stroke-width="2" stroke-linecap="round"/>
<path d="M402.293 395.09C393.257 393.891 347.78 404.916 326.171 410.579L308 426.067C315.694 429.064 332.654 434.46 338.94 432.062C346.798 429.064 368.898 428.065 373.809 430.563C377.738 432.562 374.136 444.053 371.844 449.549L427.831 513C429.468 483.356 431.76 421.37 427.831 410.579C422.92 397.089 413.588 396.589 402.293 395.09Z" fill="#1C1A2F" stroke="#1C1A2F" stroke-width="2" stroke-linecap="round"/>
<path d="M297 63C297 57.4772 301.477 53 307 53H706C711.523 53 716 57.4772 716 63V82H297V63Z" fill="#253D62"/>
<mask id="path-20-inside-4_322_222" fill="white">
<path fill-rule="evenodd" clip-rule="evenodd" d="M694 258C699.523 258 704 262.477 704 268V390.741C704 396.264 699.523 400.741 694 400.741H690.947L687.269 426L663.817 400.741H468C462.477 400.741 458 396.264 458 390.741V268C458 262.477 462.477 258 468 258H694Z"/>
</mask>
<path fill-rule="evenodd" clip-rule="evenodd" d="M694 258C699.523 258 704 262.477 704 268V390.741C704 396.264 699.523 400.741 694 400.741H690.947L687.269 426L663.817 400.741H468C462.477 400.741 458 396.264 458 390.741V268C458 262.477 462.477 258 468 258H694Z" fill="white"/>
<path d="M690.947 400.741L687.978 400.309L688.352 397.741H690.947V400.741ZM687.269 426L690.238 426.432L689.335 432.634L685.071 428.041L687.269 426ZM663.817 400.741V397.741H665.125L666.016 398.7L663.817 400.741ZM701 268C701 264.134 697.866 261 694 261V255C701.18 255 707 260.82 707 268H701ZM701 390.741V268H707V390.741H701ZM694 397.741C697.866 397.741 701 394.607 701 390.741H707C707 397.921 701.18 403.741 694 403.741V397.741ZM690.947 397.741H694V403.741H690.947V397.741ZM684.301 425.568L687.978 400.309L693.915 401.173L690.238 426.432L684.301 425.568ZM666.016 398.7L689.468 423.959L685.071 428.041L661.619 402.782L666.016 398.7ZM468 397.741H663.817V403.741H468V397.741ZM461 390.741C461 394.607 464.134 397.741 468 397.741V403.741C460.82 403.741 455 397.921 455 390.741H461ZM461 268V390.741H455V268H461ZM468 261C464.134 261 461 264.134 461 268H455C455 260.82 460.82 255 468 255V261ZM694 261H468V255H694V261Z" fill="#253D62" mask="url(#path-20-inside-4_322_222)"/>
<path d="M703 269C703 263.477 698.523 259 693 259H468C462.477 259 458 263.477 458 269V277H703V269Z" fill="#253D62"/>
<rect x="351" y="156" width="310" height="38" rx="19" fill="white" stroke="#F09120" stroke-width="2"/>
<rect x="37" y="142" width="217" height="20" rx="10" fill="white" stroke="#F09120" stroke-width="2"/>
<path d="M462.871 137.24C461.271 137.24 459.741 137 458.281 136.52C456.821 136.02 455.671 135.38 454.831 134.6L455.941 132.26C456.741 132.96 457.761 133.54 459.001 134C460.241 134.46 461.531 134.69 462.871 134.69C464.091 134.69 465.081 134.55 465.841 134.27C466.601 133.99 467.161 133.61 467.521 133.13C467.881 132.63 468.061 132.07 468.061 131.45C468.061 130.73 467.821 130.15 467.341 129.71C466.881 129.27 466.271 128.92 465.511 128.66C464.771 128.38 463.951 128.14 463.051 127.94C462.151 127.74 461.241 127.51 460.321 127.25C459.421 126.97 458.591 126.62 457.831 126.2C457.091 125.78 456.491 125.22 456.031 124.52C455.571 123.8 455.341 122.88 455.341 121.76C455.341 120.68 455.621 119.69 456.181 118.79C456.761 117.87 457.641 117.14 458.821 116.6C460.021 116.04 461.541 115.76 463.381 115.76C464.601 115.76 465.811 115.92 467.011 116.24C468.211 116.56 469.251 117.02 470.131 117.62L469.141 120.02C468.241 119.42 467.291 118.99 466.291 118.73C465.291 118.45 464.321 118.31 463.381 118.31C462.201 118.31 461.231 118.46 460.471 118.76C459.711 119.06 459.151 119.46 458.791 119.96C458.451 120.46 458.281 121.02 458.281 121.64C458.281 122.38 458.511 122.97 458.971 123.41C459.451 123.85 460.061 124.2 460.801 124.46C461.561 124.72 462.391 124.96 463.291 125.18C464.191 125.38 465.091 125.61 465.991 125.87C466.911 126.13 467.741 126.47 468.481 126.89C469.241 127.31 469.851 127.87 470.311 128.57C470.771 129.27 471.001 130.17 471.001 131.27C471.001 132.33 470.711 133.32 470.131 134.24C469.551 135.14 468.651 135.87 467.431 136.43C466.231 136.97 464.711 137.24 462.871 137.24ZM482.043 137.18C480.343 137.18 478.843 136.83 477.543 136.13C476.263 135.43 475.263 134.47 474.543 133.25C473.843 132.03 473.493 130.63 473.493 129.05C473.493 127.47 473.833 126.07 474.513 124.85C475.213 123.63 476.163 122.68 477.363 122C478.583 121.3 479.953 120.95 481.473 120.95C483.013 120.95 484.373 121.29 485.553 121.97C486.733 122.65 487.653 123.61 488.313 124.85C488.993 126.07 489.333 127.5 489.333 129.14C489.333 129.26 489.323 129.4 489.303 129.56C489.303 129.72 489.293 129.87 489.273 130.01H475.743V127.94H487.773L486.603 128.66C486.623 127.64 486.413 126.73 485.973 125.93C485.533 125.13 484.923 124.51 484.143 124.07C483.383 123.61 482.493 123.38 481.473 123.38C480.473 123.38 479.583 123.61 478.803 124.07C478.023 124.51 477.413 125.14 476.973 125.96C476.533 126.76 476.313 127.68 476.313 128.72V129.2C476.313 130.26 476.553 131.21 477.033 132.05C477.533 132.87 478.223 133.51 479.103 133.97C479.983 134.43 480.993 134.66 482.133 134.66C483.073 134.66 483.923 134.5 484.683 134.18C485.463 133.86 486.143 133.38 486.723 132.74L488.313 134.6C487.593 135.44 486.693 136.08 485.613 136.52C484.553 136.96 483.363 137.18 482.043 137.18ZM502.763 137V133.64L502.613 133.01V127.28C502.613 126.06 502.253 125.12 501.533 124.46C500.833 123.78 499.773 123.44 498.353 123.44C497.413 123.44 496.493 123.6 495.593 123.92C494.693 124.22 493.933 124.63 493.313 125.15L492.113 122.99C492.933 122.33 493.913 121.83 495.053 121.49C496.213 121.13 497.423 120.95 498.683 120.95C500.863 120.95 502.543 121.48 503.723 122.54C504.903 123.6 505.493 125.22 505.493 127.4V137H502.763ZM497.543 137.18C496.363 137.18 495.323 136.98 494.423 136.58C493.543 136.18 492.863 135.63 492.383 134.93C491.903 134.21 491.663 133.4 491.663 132.5C491.663 131.64 491.863 130.86 492.263 130.16C492.683 129.46 493.353 128.9 494.273 128.48C495.213 128.06 496.473 127.85 498.053 127.85H503.093V129.92H498.173C496.733 129.92 495.763 130.16 495.263 130.64C494.763 131.12 494.513 131.7 494.513 132.38C494.513 133.16 494.823 133.79 495.443 134.27C496.063 134.73 496.923 134.96 498.023 134.96C499.103 134.96 500.043 134.72 500.843 134.24C501.663 133.76 502.253 133.06 502.613 132.14L503.183 134.12C502.803 135.06 502.133 135.81 501.173 136.37C500.213 136.91 499.003 137.18 497.543 137.18ZM510.823 137V121.1H513.583V125.42L513.313 124.34C513.753 123.24 514.493 122.4 515.533 121.82C516.573 121.24 517.853 120.95 519.373 120.95V123.74C519.253 123.72 519.133 123.71 519.013 123.71C518.913 123.71 518.813 123.71 518.713 123.71C517.173 123.71 515.953 124.17 515.053 125.09C514.153 126.01 513.703 127.34 513.703 129.08V137H510.823ZM529.706 137.18C528.086 137.18 526.636 136.83 525.356 136.13C524.096 135.43 523.106 134.47 522.386 133.25C521.666 132.03 521.306 130.63 521.306 129.05C521.306 127.47 521.666 126.07 522.386 124.85C523.106 123.63 524.096 122.68 525.356 122C526.636 121.3 528.086 120.95 529.706 120.95C531.146 120.95 532.426 121.24 533.546 121.82C534.686 122.38 535.566 123.22 536.186 124.34L533.996 125.75C533.476 124.97 532.836 124.4 532.076 124.04C531.336 123.66 530.536 123.47 529.676 123.47C528.636 123.47 527.706 123.7 526.886 124.16C526.066 124.62 525.416 125.27 524.936 126.11C524.456 126.93 524.216 127.91 524.216 129.05C524.216 130.19 524.456 131.18 524.936 132.02C525.416 132.86 526.066 133.51 526.886 133.97C527.706 134.43 528.636 134.66 529.676 134.66C530.536 134.66 531.336 134.48 532.076 134.12C532.836 133.74 533.476 133.16 533.996 132.38L536.186 133.76C535.566 134.86 534.686 135.71 533.546 136.31C532.426 136.89 531.146 137.18 529.706 137.18ZM548.199 120.95C549.499 120.95 550.639 121.2 551.619 121.7C552.619 122.2 553.399 122.96 553.959 123.98C554.519 125 554.799 126.29 554.799 127.85V137H551.919V128.18C551.919 126.64 551.539 125.48 550.779 124.7C550.039 123.92 548.989 123.53 547.629 123.53C546.609 123.53 545.719 123.73 544.959 124.13C544.199 124.53 543.609 125.12 543.189 125.9C542.789 126.68 542.589 127.65 542.589 128.81V137H539.709V114.74H542.589V125.39L542.019 124.25C542.539 123.21 543.339 122.4 544.419 121.82C545.499 121.24 546.759 120.95 548.199 120.95Z" fill="#F09120"/>
<path d="M51.4548 149.58C51.9748 149.58 52.4308 149.68 52.8228 149.88C53.2228 150.08 53.5348 150.384 53.7588 150.792C53.9828 151.2 54.0948 151.716 54.0948 152.34V156H52.9428V152.472C52.9428 151.856 52.7908 151.392 52.4868 151.08C52.1908 150.768 51.7708 150.612 51.2268 150.612C50.8188 150.612 50.4628 150.692 50.1588 150.852C49.8548 151.012 49.6188 151.248 49.4508 151.56C49.2908 151.872 49.2108 152.26 49.2108 152.724V156H48.0588V147.096H49.2108V151.356L48.9828 150.9C49.1908 150.484 49.5108 150.16 49.9428 149.928C50.3748 149.696 50.8788 149.58 51.4548 149.58ZM58.4108 156.072C57.7708 156.072 57.2748 155.9 56.9228 155.556C56.5708 155.212 56.3948 154.72 56.3948 154.08V148.248H57.5468V154.032C57.5468 154.376 57.6308 154.64 57.7988 154.824C57.9748 155.008 58.2228 155.1 58.5428 155.1C58.9028 155.1 59.2028 155 59.4428 154.8L59.8028 155.628C59.6268 155.78 59.4148 155.892 59.1668 155.964C58.9268 156.036 58.6748 156.072 58.4108 156.072ZM55.3148 150.588V149.64H59.3708V150.588H55.3148ZM63.2272 156.072C62.5872 156.072 62.0912 155.9 61.7392 155.556C61.3872 155.212 61.2112 154.72 61.2112 154.08V148.248H62.3632V154.032C62.3632 154.376 62.4472 154.64 62.6152 154.824C62.7912 155.008 63.0392 155.1 63.3592 155.1C63.7192 155.1 64.0192 155 64.2592 154.8L64.6192 155.628C64.4432 155.78 64.2312 155.892 63.9832 155.964C63.7432 156.036 63.4912 156.072 63.2272 156.072ZM60.1312 150.588V149.64H64.1872V150.588H60.1312ZM69.3839 156.072C68.8559 156.072 68.3719 155.952 67.9319 155.712C67.4999 155.464 67.1519 155.1 66.8879 154.62C66.6319 154.14 66.5039 153.54 66.5039 152.82C66.5039 152.1 66.6279 151.5 66.8759 151.02C67.1319 150.54 67.4759 150.18 67.9079 149.94C68.3479 149.7 68.8399 149.58 69.3839 149.58C70.0079 149.58 70.5599 149.716 71.0399 149.988C71.5199 150.26 71.8999 150.64 72.1799 151.128C72.4599 151.608 72.5999 152.172 72.5999 152.82C72.5999 153.468 72.4599 154.036 72.1799 154.524C71.8999 155.012 71.5199 155.392 71.0399 155.664C70.5599 155.936 70.0079 156.072 69.3839 156.072ZM66.0119 158.328V149.64H67.1159V151.356L67.0439 152.832L67.1639 154.308V158.328H66.0119ZM69.2879 155.064C69.6959 155.064 70.0599 154.972 70.3799 154.788C70.7079 154.604 70.9639 154.344 71.1479 154.008C71.3399 153.664 71.4359 153.268 71.4359 152.82C71.4359 152.364 71.3399 151.972 71.1479 151.644C70.9639 151.308 70.7079 151.048 70.3799 150.864C70.0599 150.68 69.6959 150.588 69.2879 150.588C68.8879 150.588 68.5239 150.68 68.1959 150.864C67.8759 151.048 67.6199 151.308 67.4279 151.644C67.2439 151.972 67.1519 152.364 67.1519 152.82C67.1519 153.268 67.2439 153.664 67.4279 154.008C67.6199 154.344 67.8759 154.604 68.1959 154.788C68.5239 154.972 68.8879 155.064 69.2879 155.064ZM76.0156 156.072C75.4876 156.072 74.9836 156 74.5036 155.856C74.0316 155.712 73.6596 155.536 73.3876 155.328L73.8676 154.416C74.1396 154.6 74.4756 154.756 74.8756 154.884C75.2756 155.012 75.6836 155.076 76.0996 155.076C76.6356 155.076 77.0196 155 77.2516 154.848C77.4916 154.696 77.6116 154.484 77.6116 154.212C77.6116 154.012 77.5396 153.856 77.3956 153.744C77.2516 153.632 77.0596 153.548 76.8196 153.492C76.5876 153.436 76.3276 153.388 76.0396 153.348C75.7516 153.3 75.4636 153.244 75.1756 153.18C74.8876 153.108 74.6236 153.012 74.3836 152.892C74.1436 152.764 73.9516 152.592 73.8076 152.376C73.6636 152.152 73.5916 151.856 73.5916 151.488C73.5916 151.104 73.6996 150.768 73.9156 150.48C74.1316 150.192 74.4356 149.972 74.8276 149.82C75.2276 149.66 75.6996 149.58 76.2436 149.58C76.6596 149.58 77.0796 149.632 77.5036 149.736C77.9356 149.832 78.2876 149.972 78.5596 150.156L78.0676 151.068C77.7796 150.876 77.4796 150.744 77.1676 150.672C76.8556 150.6 76.5436 150.564 76.2316 150.564C75.7276 150.564 75.3516 150.648 75.1036 150.816C74.8556 150.976 74.7316 151.184 74.7316 151.44C74.7316 151.656 74.8036 151.824 74.9476 151.944C75.0996 152.056 75.2916 152.144 75.5236 152.208C75.7636 152.272 76.0276 152.328 76.3156 152.376C76.6036 152.416 76.8916 152.472 77.1796 152.544C77.4676 152.608 77.7276 152.7 77.9596 152.82C78.1996 152.94 78.3916 153.108 78.5356 153.324C78.6876 153.54 78.7636 153.828 78.7636 154.188C78.7636 154.572 78.6516 154.904 78.4276 155.184C78.2036 155.464 77.8876 155.684 77.4796 155.844C77.0716 155.996 76.5836 156.072 76.0156 156.072ZM80.4793 151.224C80.2553 151.224 80.0633 151.148 79.9033 150.996C79.7433 150.836 79.6633 150.636 79.6633 150.396C79.6633 150.156 79.7433 149.96 79.9033 149.808C80.0633 149.656 80.2553 149.58 80.4793 149.58C80.6953 149.58 80.8793 149.656 81.0313 149.808C81.1913 149.96 81.2713 150.156 81.2713 150.396C81.2713 150.636 81.1913 150.836 81.0313 150.996C80.8793 151.148 80.6953 151.224 80.4793 151.224ZM80.4793 156.072C80.2553 156.072 80.0633 155.996 79.9033 155.844C79.7433 155.684 79.6633 155.484 79.6633 155.244C79.6633 155.004 79.7433 154.808 79.9033 154.656C80.0633 154.504 80.2553 154.428 80.4793 154.428C80.6953 154.428 80.8793 154.504 81.0313 154.656C81.1913 154.808 81.2713 155.004 81.2713 155.244C81.2713 155.484 81.1913 155.684 81.0313 155.844C80.8793 155.996 80.6953 156.072 80.4793 156.072ZM82.0683 157.2L86.0283 145.896H87.0723L83.1123 157.2H82.0683ZM85.4785 157.2L89.4385 145.896H90.4825L86.5225 157.2H85.4785Z" fill="#F09120"/>
<path d="M50 185C50 182.239 52.2386 180 55 180H68.5H77.9042H82C84.7614 180 87 182.239 87 185V220C87 222.761 84.7614 225 82 225H55C52.2386 225 50 222.761 50 220V185Z" fill="#F09120" fill-opacity="0.54"/>
<path d="M76.4658 191.528C75.9893 191.478 75.6141 191.104 75.5688 190.633L74.6935 181.531C74.6041 180.601 75.7449 180.074 76.4103 180.738L86.4951 190.793C87.1605 191.457 86.6158 192.578 85.6753 192.48L76.4658 191.528Z" fill="#F09120"/>
<rect width="17.8686" height="9.69261" transform="matrix(0.708153 0.706059 -0.714976 0.699149 81.3462 172)" fill="white"/>
<path d="M50 241C50 238.239 52.2386 236 55 236H68.5H77.9042H82C84.7614 236 87 238.239 87 241V276C87 278.761 84.7614 281 82 281H55C52.2386 281 50 278.761 50 276V241Z" fill="#F09120" fill-opacity="0.54"/>
<path d="M76.4658 247.528C75.9893 247.478 75.6141 247.104 75.5688 246.633L74.6935 237.531C74.6041 236.601 75.7449 236.074 76.4103 236.738L86.4951 246.793C87.1605 247.457 86.6158 248.578 85.6753 248.48L76.4658 247.528Z" fill="#F09120"/>
<rect width="17.8686" height="9.69261" transform="matrix(0.708153 0.706059 -0.714976 0.699149 81.3462 228)" fill="white"/>
<path d="M102 241C102 238.239 104.239 236 107 236H120.5H129.904H134C136.761 236 139 238.239 139 241V276C139 278.761 136.761 281 134 281H107C104.239 281 102 278.761 102 276V241Z" fill="#F09120" fill-opacity="0.54"/>
<path d="M128.466 247.528C127.989 247.478 127.614 247.104 127.569 246.633L126.694 237.531C126.604 236.601 127.745 236.074 128.41 236.738L138.495 246.793C139.161 247.457 138.616 248.578 137.675 248.48L128.466 247.528Z" fill="#F09120"/>
<rect width="17.8686" height="9.69261" transform="matrix(0.708153 0.706059 -0.714976 0.699149 133.346 228)" fill="white"/>
<path d="M102 185C102 182.239 104.239 180 107 180H120.5H129.904H134C136.761 180 139 182.239 139 185V220C139 222.761 136.761 225 134 225H107C104.239 225 102 222.761 102 220V185Z" fill="#F09120" fill-opacity="0.54"/>
<path d="M128.466 191.528C127.989 191.478 127.614 191.104 127.569 190.633L126.694 181.531C126.604 180.601 127.745 180.074 128.41 180.738L138.495 190.793C139.161 191.457 138.616 192.578 137.675 192.48L128.466 191.528Z" fill="#F09120"/>
<rect width="17.8686" height="9.69261" transform="matrix(0.708153 0.706059 -0.714976 0.699149 133.346 172)" fill="white"/>
<path d="M154 185C154 182.239 156.239 180 159 180H172.5H181.904H186C188.761 180 191 182.239 191 185V220C191 222.761 188.761 225 186 225H159C156.239 225 154 222.761 154 220V185Z" fill="#F09120" fill-opacity="0.54"/>
<path d="M180.466 191.528C179.989 191.478 179.614 191.104 179.569 190.633L178.694 181.531C178.604 180.601 179.745 180.074 180.41 180.738L190.495 190.793C191.161 191.457 190.616 192.578 189.675 192.48L180.466 191.528Z" fill="#F09120"/>
<rect width="17.8686" height="9.69261" transform="matrix(0.708153 0.706059 -0.714976 0.699149 185.346 172)" fill="white"/>
<rect x="405" y="204" width="30" height="30" rx="3" fill="#D9D9D9"/>
<rect x="462" y="204" width="30" height="30" rx="3" fill="#D9D9D9"/>
<rect x="519" y="204" width="30" height="30" rx="3" fill="#D9D9D9"/>
<rect x="576" y="204" width="30" height="30" rx="3" fill="#D9D9D9"/>
<path d="M420 211V227" stroke="white" stroke-width="3" stroke-linecap="round"/>
<path fill-rule="evenodd" clip-rule="evenodd" d="M421.5 211C421.5 210.172 420.828 209.5 420 209.5C419.172 209.5 418.5 210.172 418.5 211V217.5H412C411.172 217.5 410.5 218.172 410.5 219C410.5 219.828 411.172 220.5 412 220.5H418.5V227C418.5 227.828 419.172 228.5 420 228.5C420.828 228.5 421.5 227.828 421.5 227V220.5H428C428.828 220.5 429.5 219.828 429.5 219C429.5 218.172 428.828 217.5 428 217.5H421.5V211Z" fill="white"/>
<path fill-rule="evenodd" clip-rule="evenodd" d="M478 211.5C478 210.672 477.328 210 476.5 210C475.672 210 475 210.672 475 211.5V218H468.5C467.672 218 467 218.672 467 219.5C467 220.328 467.672 221 468.5 221H475V227.5C475 228.328 475.672 229 476.5 229C477.328 229 478 228.328 478 227.5V221H484.5C485.328 221 486 220.328 486 219.5C486 218.672 485.328 218 484.5 218H478V211.5Z" fill="white"/>
<path fill-rule="evenodd" clip-rule="evenodd" d="M535 210.5C535 209.672 534.328 209 533.5 209C532.672 209 532 209.672 532 210.5V217H525.5C524.672 217 524 217.672 524 218.5C524 219.328 524.672 220 525.5 220H532V226.5C532 227.328 532.672 228 533.5 228C534.328 228 535 227.328 535 226.5V220H541.5C542.328 220 543 219.328 543 218.5C543 217.672 542.328 217 541.5 217H535V210.5Z" fill="white"/>
<path fill-rule="evenodd" clip-rule="evenodd" d="M593 181.5C593 180.672 592.328 180 591.5 180C590.672 180 590 180.672 590 181.5V188H583.5C582.672 188 582 188.672 582 189.5C582 190.328 582.672 191 583.5 191H590V197.5C590 198.328 590.672 199 591.5 199C592.328 199 593 198.328 593 197.5V191H599.5C600.328 191 601 190.328 601 189.5C601 188.672 600.328 188 599.5 188H593V181.5Z" fill="white"/>
<rect x="473" y="290" width="154" height="94" fill="#DFDFDF"/>
<ellipse cx="549.5" cy="335" rx="12.5" ry="12" fill="#C3C3C3"/>
<path d="M555 334.5L547.5 340.995V328.005L555 334.5Z" fill="#D9D9D9"/>
<rect x="638" y="264" width="50" height="29" fill="#F09120"/>
<rect x="638" y="302" width="50" height="29" fill="#D9D9D9"/>
<path d="M212 220H204L202.5 222.5C205 222.667 210.4 222.8 212 222C213.6 221.2 212.667 220.333 212 220Z" fill="#340900" stroke="#340900"/>
<path d="M463.5 544.5C459.9 543.3 446 557 439.5 564C442.667 566.5 449.6 570.4 452 566C454.4 561.6 470 561.5 477.5 562C483.667 566 496.6 574.1 499 574.5C501.4 574.9 508.667 569 512 566C498 560.833 470.2 550.3 471 549.5C472 548.5 468 546 463.5 544.5Z" fill="#F09120" stroke="#F09120" stroke-width="2" stroke-linecap="round"/>
<rect x="196" y="196" width="52" height="75" rx="16" fill="#FAC9AB"/>
<path d="M233.12 188.599C215.52 179.399 205.12 186.099 202.12 190.599C182.92 186.999 176.12 203.099 175.12 211.599C174.454 222.599 172.12 246.599 168.12 254.599C164.12 262.599 171.787 271.266 176.12 274.599C176.52 281.799 191.954 280.933 199.62 279.599C200.454 276.599 201.62 269.799 199.62 266.599C197.62 263.399 196.12 261.266 195.62 260.599C200.82 260.199 200.454 250.766 199.62 246.099C204.02 244.899 204.12 233.599 203.62 228.099C208.12 227.099 206.098 204 206.598 201.5C206.998 199.5 214.765 199 218.598 199C213.098 225.5 244.12 220.599 243.12 228.099L247.62 229.099L247.921 251.93C248.039 260.899 242.171 268.849 233.566 271.38L231.12 272.099L228.62 279.599L237.12 277.599C237.62 276.766 240.02 275.299 245.62 276.099C251.22 276.899 258.62 268.099 261.62 263.599C263.62 261.099 267.92 254.599 269.12 248.599C270.32 242.599 259.287 234.433 253.62 231.099C253.62 228.933 253.32 224.499 252.12 224.099C250.92 223.699 252.62 218.933 253.62 216.599C254.12 211.099 250.72 197.799 233.12 188.599Z" fill="#182941" stroke="#182941"/>
<path d="M201 255H234V307L201 294V255Z" fill="#FAC9AB"/>
<path d="M218.5 252.5C218.333 253.833 219.9 256.4 227.5 256" stroke="#340900" stroke-opacity="0.69" stroke-width="2" stroke-linecap="round"/>
<path d="M146.5 314C144.924 316.865 142.215 322.416 142.248 324.68C142.335 324.971 142.42 325.246 142.5 325.5C142.332 325.332 142.253 325.05 142.248 324.68C141.246 321.34 139.896 315.868 141 315.5C142.2 315.1 145.167 314.333 146.5 314Z" fill="#D47B15" stroke="#D47B15"/>
<path d="M107.5 401.5C101.1 388.7 133.167 335.167 150 310C161.167 316 182.3 328.3 177.5 329.5C171.5 331 143 383.5 143 389C143 393.4 190 416.833 213.5 428C215.333 427.667 219.6 426.5 222 424.5C225 422 249.5 411 261.5 416.5C271.1 420.9 269.833 428 268 431C264.4 428.6 252.167 431.333 246.5 433C239.833 438.167 224.6 448.5 217 448.5C207.5 448.5 214 444 191.5 442C173.5 440.4 136.333 423.667 120 415.5C106.4 413.1 106 405.167 107.5 401.5Z" fill="#FAC9AB"/>
<rect x="272.739" y="349.185" width="21" height="12" transform="rotate(-16.2831 272.739 349.185)" fill="#FAC9AB"/>
<path d="M168 284.5C173.771 278.344 194 282.167 203 284C210.833 286 228.1 289.4 234.5 287C242.5 284 271.5 292 270 301.5C268.5 311 287.5 336.5 291.5 339C294.7 341 293.833 343.167 293 344L279 347L289 389L270 419C262.167 419.833 244.1 420.8 234.5 418C224.9 415.2 215.833 422.833 212.5 427C208.167 433 197.2 445.7 188 448.5C178.8 451.3 177.167 446.333 177.5 443.5C180.167 437.5 183.4 422.6 175 411C166.6 399.4 162.5 365.333 161.5 350L166.987 345.326C171.344 341.614 171.703 335.009 167.772 330.847L166.5 329.5L158.75 322L151 314.5C146.5 311.5 140.5 318.795 140.5 315C140.5 311.5 160.5 292.5 168 284.5Z" fill="#F09120" stroke="#F09120"/>
<path d="M211.5 414C218 408.167 235.5 397.6 253.5 402C243.5 402.834 221.1 406.4 211.5 414Z" fill="#D47B15" stroke="#D47B15"/>
<path d="M183.5 322C180.7 322.4 167.167 341.167 161 350.5C162.167 360.833 164.5 380.5 164.5 376.5C164.5 372.5 177.333 338.5 183.5 322Z" fill="#D47B15"/>
<path d="M213.5 428L172.5 407.5C173.333 417.5 175.5 437.7 177.5 438.5C179.5 439.3 193 442.333 199 443.5L213.5 428Z" fill="#FAC9AB"/>
<path d="M235 419C244 417.5 262.5 415 266 420C266.946 421.351 245.5 420.167 235 419Z" fill="#FAC9AB" stroke="#FAC9AB"/>
<path d="M271.049 358L391 331L387.963 410.241L271.049 438L271.049 358Z" fill="#253D62"/>
<rect x="219" y="447.961" width="81.0498" height="7" transform="rotate(-17.1954 219 447.961)" fill="#253D62"/>
<circle cx="211.5" cy="234.5" r="2.5" fill="#340900"/>
<path d="M419.5 546.5C417.154 544.623 412.169 544.833 407.372 545.698C402.265 546.619 399.461 551.866 400.861 556.863C403.052 564.68 406.008 574.239 408.5 579.5C412.1 587.1 435 587.667 446 587C447.2 592.2 465.5 594.833 474.5 595.5C474.5 597.333 479.9 601.4 501.5 603C523.1 604.6 533.5 590 536 582.5C541.5 578.5 523 561.5 522 571C521.2 578.6 508 582.833 501.5 584C492.833 580.333 475.3 572.8 474.5 572C473.5 571 453.5 574.5 447 572C441.8 570 439.167 565.5 438.5 563.5C433.833 559.167 423.5 549.7 419.5 546.5Z" fill="#F09120" stroke="#F09120" stroke-width="2" stroke-linecap="round"/>
<path d="M435.5 587C439.9 586.2 431.667 564.667 427 554C427.833 554 430.2 554.9 433 558.5C437.8 562.1 439.667 579 440 587H435.5Z" fill="white" stroke="#F09120" stroke-width="2" stroke-linecap="round"/>
<circle cx="235.5" cy="231.5" r="2.5" fill="#340900"/>
<path d="M229 238.5L230.72 242.627C231.149 243.657 230.65 244.836 229.588 245.177C228.66 245.475 227.557 245.789 226.5 246" stroke="#340900" stroke-opacity="0.71" stroke-width="2" stroke-linecap="round"/>
</svg>
