<svg width="234" height="207" viewBox="0 0 234 207" fill="none" xmlns="http://www.w3.org/2000/svg">
<circle cx="116" cy="80" r="80" fill="white"/>
<path d="M159 65V100M159 100L153.347 106.864C152.81 107.517 153.274 108.5 154.119 108.5H164.284C165.145 108.5 165.604 107.484 165.034 106.838L159 100Z" stroke="#253D62" stroke-width="3" stroke-linecap="round"/>
<circle cx="116" cy="80" r="72.5" stroke="#F09120" stroke-width="5"/>
<path d="M13.7867 207H7.58672C7.08005 207 6.70672 206.893 6.46672 206.68C6.25339 206.44 6.14672 206.067 6.14672 205.56V179.64C6.14672 179.133 6.25339 178.773 6.46672 178.56C6.70672 178.32 7.08005 178.2 7.58672 178.2H25.4267C25.9334 178.2 26.2934 178.32 26.5067 178.56C26.7467 178.773 26.8667 179.133 26.8667 179.64V184.4C26.8667 184.907 26.7467 185.28 26.5067 185.52C26.2934 185.733 25.9334 185.84 25.4267 185.84H15.2267V190H22.1867C22.6934 190 23.0534 190.12 23.2667 190.36C23.5067 190.573 23.6267 190.933 23.6267 191.44V196.24C23.6267 196.747 23.5067 197.12 23.2667 197.36C23.0534 197.573 22.6934 197.68 22.1867 197.68H15.2267V205.56C15.2267 206.067 15.1067 206.44 14.8667 206.68C14.6534 206.893 14.2934 207 13.7867 207ZM39.9133 185.4V190.52H42.9133C43.6066 190.52 44.0733 190.347 44.3133 190C44.5533 189.627 44.6733 189.173 44.6733 188.64V187.28C44.6733 186.747 44.5533 186.307 44.3133 185.96C44.0733 185.587 43.6066 185.4 42.9133 185.4H39.9133ZM38.4733 207H32.3133C31.8066 207 31.4333 206.893 31.1933 206.68C30.9799 206.44 30.8733 206.067 30.8733 205.56V179.64C30.8733 179.133 30.9799 178.773 31.1933 178.56C31.4333 178.32 31.8066 178.2 32.3133 178.2H45.6333C48.6199 178.2 50.6733 178.827 51.7933 180.08C52.9399 181.307 53.5133 182.907 53.5133 184.88V186.72C53.5133 187.84 53.3399 188.8 52.9933 189.6C52.6733 190.373 52.0999 190.933 51.2733 191.28C52.7133 191.44 53.8733 192.027 54.7533 193.04C55.6599 194.053 56.1133 195.4 56.1133 197.08V205.56C56.1133 206.067 55.9933 206.44 55.7533 206.68C55.5399 206.893 55.1799 207 54.6733 207H48.4733C47.9666 207 47.5933 206.893 47.3533 206.68C47.1399 206.44 47.0333 206.067 47.0333 205.56V199.44C47.0333 198.853 46.9133 198.427 46.6733 198.16C46.4599 197.867 46.0733 197.72 45.5133 197.72H39.9133V205.56C39.9133 206.067 39.7933 206.44 39.5533 206.68C39.3399 206.893 38.9799 207 38.4733 207ZM80.5998 207H62.0398C61.5332 207 61.1598 206.893 60.9198 206.68C60.7065 206.44 60.5998 206.067 60.5998 205.56V179.64C60.5998 179.133 60.7065 178.773 60.9198 178.56C61.1598 178.32 61.5332 178.2 62.0398 178.2H80.5998C81.1065 178.2 81.4665 178.32 81.6798 178.56C81.9198 178.773 82.0398 179.133 82.0398 179.64V184.32C82.0398 184.827 81.9198 185.2 81.6798 185.44C81.4665 185.653 81.1065 185.76 80.5998 185.76H69.5598V188.84H77.3598C77.8665 188.84 78.2265 188.96 78.4398 189.2C78.6798 189.413 78.7998 189.773 78.7998 190.28V194.56C78.7998 195.067 78.6798 195.44 78.4398 195.68C78.2265 195.893 77.8665 196 77.3598 196H69.5598V199.44H80.5998C81.1065 199.44 81.4665 199.56 81.6798 199.8C81.9198 200.013 82.0398 200.373 82.0398 200.88V205.56C82.0398 206.067 81.9198 206.44 81.6798 206.68C81.4665 206.893 81.1065 207 80.5998 207ZM100.132 207H87.4917C86.9851 207 86.6117 206.893 86.3717 206.68C86.1584 206.44 86.0517 206.067 86.0517 205.56V200.88C86.0517 200.373 86.1584 200.013 86.3717 199.8C86.6117 199.56 86.9851 199.44 87.4917 199.44H98.2517C98.5984 199.44 98.8517 199.333 99.0117 199.12C99.1984 198.88 99.2917 198.6 99.2917 198.28C99.2917 197.827 99.1984 197.493 99.0117 197.28C98.8517 197.067 98.5984 196.947 98.2517 196.92L92.2517 196.08C90.3851 195.813 88.8784 195.2 87.7317 194.24C86.6117 193.28 86.0517 191.68 86.0517 189.44V185.24C86.0517 182.973 86.7851 181.24 88.2517 180.04C89.7184 178.813 91.7451 178.2 94.3317 178.2H105.532C106.038 178.2 106.398 178.32 106.612 178.56C106.852 178.773 106.972 179.133 106.972 179.64V184.4C106.972 184.907 106.852 185.28 106.612 185.52C106.398 185.733 106.038 185.84 105.532 185.84H96.2117C95.8651 185.84 95.5984 185.96 95.4117 186.2C95.2251 186.413 95.1317 186.693 95.1317 187.04C95.1317 187.387 95.2251 187.68 95.4117 187.92C95.5984 188.16 95.8651 188.293 96.2117 188.32L102.172 189.12C104.038 189.387 105.545 190 106.692 190.96C107.838 191.92 108.412 193.52 108.412 195.76V199.96C108.412 202.227 107.665 203.973 106.172 205.2C104.705 206.4 102.692 207 100.132 207ZM120.427 207H114.227C113.721 207 113.347 206.893 113.107 206.68C112.894 206.44 112.787 206.067 112.787 205.56V179.64C112.787 179.133 112.894 178.773 113.107 178.56C113.347 178.32 113.721 178.2 114.227 178.2H120.427C120.934 178.2 121.294 178.32 121.507 178.56C121.747 178.773 121.867 179.133 121.867 179.64V188.32H128.547V179.64C128.547 179.133 128.654 178.773 128.867 178.56C129.107 178.32 129.481 178.2 129.987 178.2H136.187C136.694 178.2 137.054 178.32 137.267 178.56C137.507 178.773 137.627 179.133 137.627 179.64V205.56C137.627 206.067 137.507 206.44 137.267 206.68C137.054 206.893 136.694 207 136.187 207H129.987C129.481 207 129.107 206.893 128.867 206.68C128.654 206.44 128.547 206.067 128.547 205.56V196.68H121.867V205.56C121.867 206.067 121.747 206.44 121.507 206.68C121.294 206.893 120.934 207 120.427 207ZM150.539 207H144.579C144.072 207 143.699 206.893 143.459 206.68C143.246 206.44 143.139 206.067 143.139 205.56V179.64C143.139 179.133 143.246 178.773 143.459 178.56C143.699 178.32 144.072 178.2 144.579 178.2H151.019C151.446 178.2 151.792 178.293 152.059 178.48C152.352 178.667 152.619 178.973 152.859 179.4L156.459 185.92C156.592 186.16 156.699 186.333 156.779 186.44C156.886 186.547 157.019 186.6 157.179 186.6H157.539C157.699 186.6 157.819 186.547 157.899 186.44C158.006 186.333 158.126 186.16 158.259 185.92L161.819 179.4C162.059 178.973 162.312 178.667 162.579 178.48C162.872 178.293 163.232 178.2 163.659 178.2H170.139C170.646 178.2 171.006 178.32 171.219 178.56C171.459 178.773 171.579 179.133 171.579 179.64V205.56C171.579 206.067 171.459 206.44 171.219 206.68C171.006 206.893 170.646 207 170.139 207H163.979C163.472 207 163.099 206.893 162.859 206.68C162.646 206.44 162.539 206.067 162.539 205.56V191.48L160.179 195.84C159.939 196.293 159.646 196.627 159.299 196.84C158.979 197.027 158.566 197.12 158.059 197.12H156.459C155.952 197.12 155.526 197.027 155.179 196.84C154.859 196.627 154.579 196.293 154.339 195.84L151.979 191.48V205.56C151.979 206.067 151.859 206.44 151.619 206.68C151.406 206.893 151.046 207 150.539 207ZM197.084 207H178.524C178.018 207 177.644 206.893 177.404 206.68C177.191 206.44 177.084 206.067 177.084 205.56V179.64C177.084 179.133 177.191 178.773 177.404 178.56C177.644 178.32 178.018 178.2 178.524 178.2H197.084C197.591 178.2 197.951 178.32 198.164 178.56C198.404 178.773 198.524 179.133 198.524 179.64V184.32C198.524 184.827 198.404 185.2 198.164 185.44C197.951 185.653 197.591 185.76 197.084 185.76H186.044V188.84H193.844C194.351 188.84 194.711 188.96 194.924 189.2C195.164 189.413 195.284 189.773 195.284 190.28V194.56C195.284 195.067 195.164 195.44 194.924 195.68C194.711 195.893 194.351 196 193.844 196H186.044V199.44H197.084C197.591 199.44 197.951 199.56 198.164 199.8C198.404 200.013 198.524 200.373 198.524 200.88V205.56C198.524 206.067 198.404 206.44 198.164 206.68C197.951 206.893 197.591 207 197.084 207ZM210.696 207H204.696C204.189 207 203.816 206.893 203.576 206.68C203.363 206.44 203.256 206.067 203.256 205.56V179.64C203.256 179.133 203.363 178.773 203.576 178.56C203.816 178.32 204.189 178.2 204.696 178.2H208.856C209.363 178.2 209.789 178.28 210.136 178.44C210.509 178.6 210.869 178.88 211.216 179.28L218.976 188.16V179.64C218.976 179.133 219.083 178.773 219.296 178.56C219.536 178.32 219.909 178.2 220.416 178.2H226.416C226.923 178.2 227.283 178.32 227.496 178.56C227.736 178.773 227.856 179.133 227.856 179.64V205.56C227.856 206.067 227.736 206.44 227.496 206.68C227.283 206.893 226.923 207 226.416 207H220.416C219.909 207 219.536 206.893 219.296 206.68C219.083 206.44 218.976 206.067 218.976 205.56V200.64L212.136 192.36V205.56C212.136 206.067 212.016 206.44 211.776 206.68C211.563 206.893 211.203 207 210.696 207Z" fill="white"/>
<path d="M114.839 41.6892C115.527 41.3207 116.34 41.3198 117.029 41.6867L157.417 63.1882C159.188 64.1311 159.206 66.7981 157.448 67.7632L116.958 89.9914C116.28 90.3633 115.477 90.3764 114.788 90.0268L113.739 92.3426L114.788 90.0268L72.9329 68.7789C71.1165 67.8568 71.0865 65.1331 72.882 64.171L114.839 41.6892Z" stroke="#253D62" stroke-width="5"/>
<path d="M86.0002 97L114.823 110.4C115.641 110.78 116.585 110.772 117.396 110.379L145 97" stroke="#253D62" stroke-width="5" stroke-linecap="round"/>
</svg>
