<svg width="50" height="50" viewBox="0 0 50 50" fill="none" xmlns="http://www.w3.org/2000/svg">
<circle cx="25" cy="25" r="23" fill="white" stroke="#F09120" stroke-width="4"/>
<path d="M23.4294 37H18.4694C18.064 37 17.7654 36.9147 17.5734 36.744C17.4027 36.552 17.3174 36.2533 17.3174 35.848V15.112C17.3174 14.7067 17.4027 14.4187 17.5734 14.248C17.7654 14.056 18.064 13.96 18.4694 13.96H32.7414C33.1467 13.96 33.4347 14.056 33.6054 14.248C33.7974 14.4187 33.8934 14.7067 33.8934 15.112V18.92C33.8934 19.3253 33.7974 19.624 33.6054 19.816C33.4347 19.9867 33.1467 20.072 32.7414 20.072H24.5814V23.4H30.1494C30.5547 23.4 30.8427 23.496 31.0134 23.688C31.2054 23.8587 31.3014 24.1467 31.3014 24.552V28.392C31.3014 28.7973 31.2054 29.096 31.0134 29.288C30.8427 29.4587 30.5547 29.544 30.1494 29.544H24.5814V35.848C24.5814 36.2533 24.4854 36.552 24.2934 36.744C24.1227 36.9147 23.8347 37 23.4294 37Z" fill="#F09120"/>
</svg>
